<svg width="112" height="116" viewBox="0 0 112 116" fill="none" xmlns="http://www.w3.org/2000/svg">
<path d="M16.6667 0.814819H96.1111C104.395 0.814819 111.111 7.53055 111.111 15.8148V100.63C111.111 108.914 104.395 115.63 96.1111 115.63H16.6667C7.46191 115.63 -1.52588e-05 108.168 -1.52588e-05 98.963V17.4815C-1.52588e-05 8.27675 7.46191 0.814819 16.6667 0.814819Z" fill="white"/>
<path d="M55.9259 51.6107C59.3045 51.6107 62.0433 48.8719 62.0433 45.4933C62.0433 42.1147 59.3045 39.3759 55.9259 39.3759C52.5473 39.3759 49.8085 42.1147 49.8085 45.4933C49.8085 48.8719 52.5473 51.6107 55.9259 51.6107Z" fill="#00ACDB"/>
<path d="M55.4815 67.9897C60.2833 72.66 65.0194 75.4227 68.8346 75.4227C70.0844 75.4227 71.2684 75.1596 72.2551 74.5676C75.6756 72.5942 76.9254 67.6608 75.7414 60.6224C75.544 59.3726 75.2809 58.1228 74.952 56.8073C76.2676 56.4126 77.4516 56.0179 78.6356 55.6232C85.2793 53.0579 88.9629 49.5058 88.9629 45.6248C88.9629 41.6781 85.2793 38.126 78.6356 35.6264C77.4516 35.166 76.2676 34.7713 74.952 34.4424C75.2809 33.1268 75.544 31.877 75.7414 30.6272C76.8596 23.4573 75.6098 18.4581 72.1893 16.4848C71.2026 15.8928 70.0186 15.6296 68.7688 15.6296C65.0194 15.6296 60.2175 18.3924 55.4157 23.0627C50.6796 18.3924 45.9435 15.6296 42.1283 15.6296C40.8785 15.6296 39.6945 15.8928 38.7078 16.4848C35.2873 18.4581 34.0375 23.3916 35.2216 30.4299C35.4189 31.6797 35.682 32.9295 36.0109 34.2451C34.6953 34.6398 33.5113 35.0344 32.3273 35.4291C25.6836 37.9945 22 41.5465 22 45.4275C22 49.3742 25.6836 52.9263 32.3273 55.4259C33.5113 55.8863 34.6953 56.281 36.0109 56.6099C35.682 57.9255 35.4189 59.1753 35.2216 60.4251C34.1033 67.4634 35.3531 72.4626 38.7078 74.3702C39.6945 74.9622 40.8785 75.2254 42.1283 75.2254C45.9435 75.3569 50.6796 72.5942 55.4815 67.9897ZM51.7978 59.1095C52.9819 59.1753 54.2317 59.1753 55.4815 59.1753C56.7313 59.1753 57.9811 59.1753 59.1651 59.1095C57.9811 60.6882 56.7313 62.1353 55.4815 63.5167C54.2317 62.1353 52.9819 60.6882 51.7978 59.1095ZM43.6413 52.3343C44.299 53.4525 44.8911 54.505 45.6146 55.5575C43.5755 55.2943 41.6679 54.9654 39.8261 54.5708C40.4181 52.7947 41.0759 50.9529 41.8652 49.1111C42.3915 50.1636 42.9835 51.2818 43.6413 52.3343ZM39.8261 36.4816C41.6679 36.0869 43.5755 35.758 45.6146 35.4949C44.9568 36.5473 44.299 37.5998 43.6413 38.718C42.9835 39.8363 42.3915 40.8888 41.8652 42.007C41.0101 40.0994 40.3523 38.2576 39.8261 36.4816ZM43.4439 45.4933C44.299 43.7172 45.2199 41.9412 46.2724 40.1652C47.2591 38.4549 48.3773 36.7447 49.4956 35.0344C51.4689 34.9029 53.4423 34.8371 55.4815 34.8371C57.5864 34.8371 59.5598 34.9029 61.4673 35.0344C62.6514 36.7447 63.7038 38.4549 64.6905 40.1652C65.743 41.9412 66.6639 43.7172 67.519 45.4933C66.6639 47.2693 65.743 49.0453 64.6905 50.8214C63.7038 52.5316 62.5856 54.2419 61.4673 55.9521C59.494 56.0837 57.5206 56.1495 55.4815 56.1495C53.3765 56.1495 51.4032 56.0837 49.4956 55.9521C48.3116 54.2419 47.2591 52.5316 46.2724 50.8214C45.2199 49.0453 44.299 47.2693 43.4439 45.4933ZM69.1635 41.9412L67.3874 38.6523C66.7297 37.534 66.1377 36.4816 65.4141 35.4291C67.4532 35.6922 69.3608 36.0211 71.2026 36.4158C70.6106 38.2576 69.9528 40.0994 69.1635 41.9412ZM69.1635 49.0453C69.9528 50.8871 70.6106 52.729 71.2026 54.505C69.3608 54.8997 67.4532 55.2286 65.4141 55.4917C66.0719 54.4392 66.7297 53.3867 67.3874 52.2685C67.9795 51.2818 68.5715 50.1636 69.1635 49.0453ZM70.6764 71.8706C70.1502 72.1995 69.4924 72.3311 68.7688 72.3311C65.5456 72.3311 61.5331 69.6999 57.5864 65.7532C59.494 63.714 61.3358 61.4118 63.1776 58.8464C66.2692 58.5833 69.2293 58.1228 71.992 57.465C72.3209 58.6491 72.5182 59.8331 72.7155 61.0171C73.6364 66.6083 72.9129 70.6208 70.6764 71.8706ZM74.0969 37.2051C81.4641 39.3101 85.8713 42.5332 85.8713 45.4933C85.8713 48.0587 82.8455 50.624 77.5174 52.6632C76.4649 53.0579 75.2809 53.4525 74.0969 53.7814C73.2418 51.0845 72.1893 48.3218 70.8737 45.4933C72.1893 42.6648 73.3076 39.9021 74.0969 37.2051ZM68.8346 18.6555C69.5582 18.6555 70.1502 18.787 70.7422 19.1159C72.9129 20.3657 73.7022 24.3125 72.7813 29.9694C72.584 31.0877 72.3209 32.2717 72.0578 33.5215C69.295 32.9295 66.335 32.469 63.2434 32.1402C61.4673 29.5748 59.5598 27.2725 57.6522 25.2334C61.5989 21.3524 65.6114 18.6555 68.8346 18.6555ZM59.1651 31.877C57.9811 31.8113 56.7313 31.8113 55.4815 31.8113C54.2317 31.8113 52.9819 31.8113 51.7978 31.877C52.9819 30.2983 54.2317 28.8512 55.4815 27.4698C56.7313 28.8512 57.9811 30.3641 59.1651 31.877ZM40.2865 19.1159C40.8128 18.787 41.4705 18.6555 42.1941 18.6555C45.4173 18.6555 49.4298 21.2866 53.3765 25.2334C51.4689 27.2725 49.6271 29.5748 47.7853 32.1402C44.6937 32.4033 41.7337 32.8637 38.971 33.5215C38.6421 32.3375 38.4447 31.1535 38.2474 29.9694C37.3265 24.3782 38.05 20.4315 40.2865 19.1159ZM36.866 53.7814C29.4988 51.6765 25.0916 48.4533 25.0916 45.4933C25.0916 42.9279 28.1174 40.3625 33.4455 38.3234C34.498 37.9287 35.682 37.534 36.866 37.2051C37.7212 39.9021 38.7736 42.6648 40.0892 45.4933C38.7736 48.3218 37.6554 51.1503 36.866 53.7814ZM38.2474 61.0171C38.4447 59.8989 38.7078 58.7148 38.971 57.465C41.7337 58.0571 44.6937 58.5175 47.7853 58.8464C49.5614 61.4118 51.4689 63.714 53.3765 65.7532C49.4298 69.6341 45.4173 72.3311 42.1941 72.3311C41.4705 72.3311 40.8785 72.1995 40.2865 71.8706C38.05 70.6208 37.3265 66.6083 38.2474 61.0171ZM35.4847 88.118C36.9318 86.342 36.9976 84.3686 36.2082 82.3953C35.4189 80.4219 33.7744 79.501 31.7353 79.4352C29.3014 79.3694 26.8018 79.4352 24.368 79.4352H23.9076V96.472H25.8809V90.0256H28.9726C29.3672 90.0256 29.6961 90.1572 29.8935 90.4861L33.8402 96.6035C33.906 96.7351 34.1033 96.9324 34.2349 96.9324H36.8002C35.2215 94.4986 33.7086 92.1963 32.1299 89.8283C33.5113 89.6309 34.6953 89.1705 35.4847 88.118ZM25.8809 87.9865V81.4744H26.6045C28.1174 81.4744 29.6961 81.4086 31.209 81.5401C32.9851 81.6059 34.2349 82.9873 34.2349 84.7633C34.2349 86.5393 32.7877 87.9207 31.0117 87.9865C29.433 88.0522 27.8543 87.9865 25.8809 87.9865ZM51.3374 88.8416C50.2849 84.2371 46.0751 83.053 42.8519 84.5002C40.3523 85.6184 39.2341 87.7891 39.1683 90.4861C39.1025 92.5252 39.6945 94.367 41.2732 95.7484C43.0492 97.3271 45.2199 97.5244 47.4564 97.1297C48.7062 96.8666 49.8245 96.2746 50.6796 95.3537C50.3507 94.8933 50.0218 94.4328 49.6929 94.0381C47.8511 95.6168 45.812 96.1431 43.5755 95.0906C42.1283 94.367 41.4048 92.591 41.2732 91.2754H51.4689V90.4203C51.5347 89.8283 51.4689 89.302 51.3374 88.8416ZM41.4048 89.8941C41.2074 87.9207 43.1808 85.8158 45.3515 85.8158C47.8511 85.75 49.4298 87.2629 49.4956 89.8941H41.4048ZM61.5989 84.1713C60.6122 83.974 59.5598 83.9082 58.5731 83.974C56.9944 84.1055 55.613 84.8291 54.4948 86.0131C54.8237 86.4736 55.0868 86.934 55.4815 87.4602C55.613 87.3287 55.7446 87.1971 55.8761 87.1313C56.9286 86.1447 58.1784 85.6184 59.6913 85.75C60.8753 85.8158 61.9936 86.2104 62.3225 87.3945C62.5856 88.3154 62.5198 89.302 62.5856 90.2887C62.3883 90.2887 62.3225 90.223 62.2567 90.1572C60.678 88.8416 58.902 88.5785 56.9944 89.0389C55.2183 89.4994 54.1001 90.8807 53.9685 92.6568C53.837 94.6959 54.7579 96.2088 56.5339 96.9324C57.6522 97.3929 58.902 97.3929 60.086 97.1297C61.0069 96.9324 61.4016 96.4062 62.7171 95.6826V96.5377H64.559C64.559 93.9066 64.6247 90.6834 64.559 87.6576C64.559 85.75 63.4407 84.566 61.5989 84.1713ZM62.5198 92.4594C62.454 92.6568 62.5198 92.8541 62.5198 93.0514C62.5198 94.4328 62.1909 94.8933 60.8753 95.4195C59.9544 95.7484 58.9677 95.8799 57.9811 95.551C56.8628 95.2221 56.0735 94.2355 56.0735 93.1172C56.0077 91.999 56.7313 90.8807 57.8495 90.5518C59.3624 90.0256 60.7438 90.3545 61.9936 91.2754C62.3883 91.6043 62.6514 91.9332 62.5198 92.4594ZM72.7813 85.9473C74.4916 85.4211 76.0703 85.75 77.2543 87.1971L77.4516 87.3287C77.9121 86.934 78.3068 86.5393 78.833 86.0789C78.6356 85.8815 78.5699 85.75 78.4383 85.5526C76.5307 83.5135 72.7813 83.2504 70.4791 84.8949C67.2559 87.2629 67.3217 91.8674 68.9004 94.3012C70.4133 96.6035 72.584 97.3929 75.1494 97.064C76.6623 96.8666 77.9121 96.1431 78.8988 94.8933C78.4383 94.4986 77.9779 94.1039 77.5174 93.6435C77.3858 93.775 77.3201 93.8408 77.2543 93.9723C75.4783 95.9457 72.5182 95.7484 70.9395 93.6435C70.0186 92.3937 69.8213 90.9465 70.0844 89.4994C70.2159 87.8549 71.0711 86.5393 72.7813 85.9473ZM86.4633 94.8933C86.3318 94.959 86.266 95.0248 86.266 95.0248C85.7398 95.4195 85.2135 95.4853 84.6215 95.2879C84.0295 95.0248 83.9637 94.4986 83.898 93.9723V86.4736C83.898 86.342 83.898 86.6051 83.9637 85.9473H86.4633V83.974H83.8322V80.685H81.8588V84.2371H80.1486C80.017 84.2371 79.8197 84.3686 79.8197 84.5002C79.7539 84.9606 79.8197 85.2895 79.8197 85.9473H81.9246V94.367C81.9246 95.4195 82.1877 96.3404 83.1086 96.8666C84.0953 97.4586 86.0029 97.3271 86.858 96.6035C86.9896 96.5377 87.0554 96.2746 87.0554 96.2088C86.858 95.8142 86.6607 95.3537 86.4633 94.8933Z" fill="#00ACDB"/>
</svg>
