<svg width="112" height="116" viewBox="0 0 112 116" fill="none" xmlns="http://www.w3.org/2000/svg">
<path d="M17.4815 0.814819H96.9259C105.21 0.814819 111.926 7.53055 111.926 15.8148V100.63C111.926 108.914 105.21 115.63 96.9259 115.63H17.4815C8.27673 115.63 0.814804 108.168 0.814804 98.963V17.4815C0.814804 8.27675 8.27673 0.814819 17.4815 0.814819Z" fill="white"/>
<path fill-rule="evenodd" clip-rule="evenodd" d="M73.6353 83.9276C73.7607 83.6863 73.881 83.4733 73.9834 83.2528C74.048 83.1118 74.1475 83.0836 74.2877 83.0873C75.1288 83.111 75.9698 83.137 76.8116 83.1452C77.5264 83.1526 78.2427 83.1392 78.9583 83.1311C79.7644 83.1214 80.5706 83.0791 81.376 83.1021C82.4486 83.1333 83.4938 83.3434 84.464 83.8207C85.6227 84.3915 86.4993 85.2607 87.0969 86.4061C87.4784 87.1373 87.6996 87.913 87.788 88.7369C87.9156 89.9305 87.8318 91.0967 87.4532 92.2384C86.9841 93.6532 86.0933 94.7362 84.8559 95.5475C83.9035 96.1718 82.8591 96.5407 81.7397 96.7516C80.555 96.975 79.3666 96.903 78.1781 96.9067C76.8747 96.9119 75.5719 96.8837 74.2684 96.8688C74.0406 96.8666 74.0079 96.8236 74.068 96.6061L74.1237 96.4056C74.2506 96.0063 74.3189 95.9885 74.7242 95.9217C75.0048 95.8764 75.2958 95.771 75.5311 95.6151C75.6677 95.5245 75.7241 95.2885 75.7775 95.1066C75.8236 94.9478 75.8258 94.7733 75.8273 94.6056C75.8458 92.0632 75.8651 89.5215 75.8755 86.9806C75.8778 86.3386 75.8629 85.695 75.8273 85.0536C75.802 84.6045 75.5623 84.2972 75.0278 84.1911C74.6121 84.1087 74.1935 84.0448 73.7756 83.9714L73.6353 83.9276ZM85.5685 90.0835C85.5121 89.5772 85.4846 89.0665 85.3941 88.5677C85.1773 87.3704 84.6532 86.3274 83.7328 85.5102C82.2445 84.1896 80.4526 83.9862 78.5745 84.1436C78.147 84.1792 78.0549 84.3254 78.0482 84.7649C78.0379 85.3884 78.0275 86.0119 78.0267 86.6355C78.0238 88.613 78.0238 90.5905 78.0267 92.5679C78.0275 93.1306 78.0334 93.6933 78.0497 94.2545C78.0675 94.829 78.2761 95.3152 78.8388 95.5379C79.7258 95.889 80.6589 95.9306 81.5898 95.7873C83.0766 95.5594 84.1166 94.6932 84.8143 93.3949C85.3666 92.3646 85.5225 91.24 85.5685 90.0835ZM89.1828 96.8169C89.1649 96.5088 89.2911 96.2542 89.447 96.0204C89.4893 95.9573 89.6348 95.9603 89.735 95.9402L90.5857 95.7717C90.8863 95.7079 91.0444 95.506 91.0868 95.2113C91.115 95.0168 91.1417 94.8201 91.1439 94.6234C91.1625 93.0668 91.1803 91.5102 91.1877 89.9536C91.1951 88.3947 91.1892 86.8359 91.1892 85.2771L91.1825 84.9794C91.1521 84.4784 90.9101 84.2185 90.4127 84.1451L89.3342 83.981C89.2013 83.9632 89.1531 83.8994 89.2013 83.7813C89.2844 83.5802 89.3639 83.3716 89.4812 83.1905C89.525 83.1237 89.6727 83.0977 89.7721 83.0999C90.2873 83.1073 90.8025 83.1459 91.3176 83.1452L95.8019 83.1185C96.6659 83.1177 97.5002 83.2684 98.2752 83.6819C99.1281 84.1362 99.6054 84.8391 99.742 85.7967C99.8845 86.8025 99.5794 87.6502 98.8445 88.3235C98.5424 88.6011 98.1512 88.7822 97.8009 89.0079L97.6866 89.0791C98.0117 89.1986 98.3212 89.3018 98.6226 89.425C99.5044 89.7865 100.206 90.3514 100.577 91.2533C100.87 91.9652 100.87 92.7075 100.697 93.4453C100.426 94.6004 99.6655 95.3686 98.676 95.9499C97.7474 96.4955 96.7423 96.8132 95.6719 96.8666C94.6847 96.9163 93.693 96.8978 92.7035 96.9089L92.1304 96.9119C91.1773 96.8904 90.2235 96.8659 89.2696 96.8406L89.1828 96.8169ZM93.2929 92.297H93.3025C93.3025 92.7854 93.2958 93.2739 93.3048 93.7623C93.3107 94.0785 93.2996 94.4037 93.3679 94.708C93.4703 95.163 93.6781 95.5735 94.1888 95.7042C94.8784 95.8816 95.5829 95.9172 96.2806 95.7962C97.1543 95.644 97.8513 95.2061 98.2336 94.374C98.5172 93.7556 98.5595 93.1002 98.4623 92.4306C98.3331 91.5488 97.8647 90.9089 97.086 90.4895C96.5753 90.2141 96.0305 90.0456 95.45 90.0233C94.7997 89.9988 94.1487 89.9974 93.4985 89.9773C93.3159 89.9721 93.2906 90.0649 93.2914 90.2149C93.2951 90.9082 93.2929 91.6022 93.2929 92.297ZM94.6773 88.9752C95.0328 88.9574 95.4352 88.9522 95.8353 88.9121C96.6013 88.8357 97.141 88.4504 97.4223 87.7178C97.5656 87.3459 97.5596 86.9628 97.5633 86.5761C97.5745 85.5688 96.9866 84.7434 96.0297 84.4019C95.2912 84.1384 94.5295 84.1339 93.7635 84.1547C93.4532 84.1629 93.3144 84.2987 93.3099 84.6112L93.2639 88.6857C93.2617 88.8475 93.3315 88.9173 93.4888 88.9225L94.6773 88.9752Z" fill="#94795D"/>
<path fill-rule="evenodd" clip-rule="evenodd" d="M16.6889 96.0337L16.6347 96.7345C16.13 96.7345 15.6645 96.7308 15.1991 96.736C14.3225 96.7449 13.4458 96.759 12.5684 96.7716L12.4838 96.7768C12.3583 96.7619 12.1304 96.7619 12.1245 96.7248C12.0874 96.5162 12.0993 96.2973 12.1089 96.0813C12.1097 96.0568 12.195 96.0256 12.2448 96.0137L12.9269 95.8615C13.3523 95.7509 13.5022 95.5676 13.5223 95.1281C13.5453 94.633 13.5683 94.1372 13.5705 93.6421C13.5772 92.4232 13.5698 91.2058 13.575 89.987C13.5757 89.7019 13.477 89.4896 13.2112 89.3738C12.895 89.2343 12.5773 89.0977 12.2574 88.9685C12.1059 88.9077 11.9092 88.8743 11.927 88.6709C11.9449 88.4638 12.1356 88.4096 12.3153 88.3688C13.0591 88.1988 13.8036 88.0332 14.5451 87.8521C14.7842 87.7935 15.0128 87.6947 15.2986 87.5953C15.3134 87.7497 15.3409 87.8966 15.3379 88.0436L15.2941 88.7421C15.2934 88.8208 15.3342 88.9262 15.3928 88.97C15.4285 88.9975 15.548 88.9477 15.6074 88.9017C16.2413 88.4192 16.9123 88.0028 17.6777 87.7601C18.8631 87.3837 19.8808 87.7326 20.5934 88.7547C20.8443 89.1148 20.845 89.1148 21.1932 88.8631C21.7907 88.4289 22.4158 88.0459 23.115 87.7935C24.6501 87.239 26.125 87.9427 26.6588 89.4889C26.8532 90.0501 26.9275 90.6298 26.926 91.2222L26.9119 95.1549C26.9111 95.4793 27.0188 95.6641 27.3276 95.765C27.6742 95.8786 28.0335 95.9566 28.4239 96.059L28.3334 96.7352C27.8895 96.7352 27.4812 96.7323 27.073 96.736C26.0753 96.7449 25.0776 96.7501 24.0807 96.7731C23.907 96.7775 23.8618 96.7345 23.8529 96.5719C23.8239 96.0516 23.8194 96.0523 24.3094 95.935L24.4742 95.8927C24.9529 95.7621 25.1125 95.6151 25.1162 95.1296C25.1274 93.7356 25.1563 92.3378 25.0858 90.9468C25.0123 89.5037 23.867 88.7354 22.4685 89.1051C22.0119 89.2254 21.5985 89.4362 21.214 89.7093C21.0841 89.8021 21.0596 89.909 21.07 90.0716C21.1093 90.6862 21.1338 91.3016 21.139 91.917C21.1479 92.994 21.1345 94.0711 21.139 95.1489C21.1405 95.5854 21.2897 95.7524 21.721 95.8534L22.3616 96.0011L22.4803 96.0278C22.4892 96.2327 22.4974 96.4376 22.4878 96.6424C22.4818 96.7709 22.3824 96.782 22.271 96.7798C21.6482 96.7642 21.0247 96.7434 20.4019 96.7449C19.644 96.7464 18.8869 96.7679 18.1297 96.7812H17.9516C17.9516 96.5638 17.9412 96.3559 17.959 96.1488C17.9627 96.0991 18.0503 96.0293 18.1104 96.0137L18.8572 95.8556C19.1741 95.7777 19.3256 95.6151 19.3434 95.2929C19.428 93.8009 19.4889 92.3081 19.3486 90.8169C19.3211 90.5274 19.2268 90.2334 19.1066 89.9669C18.7243 89.1222 17.864 88.7696 16.8715 89.0235C16.4002 89.1437 15.9748 89.3597 15.5725 89.6321C15.3825 89.7613 15.2919 89.932 15.2919 90.148C15.2919 91.6364 15.2971 93.1247 15.3015 94.6122L15.3097 95.186C15.3186 95.5861 15.4886 95.797 15.8857 95.8831C16.1411 95.941 16.3994 95.9803 16.6889 96.0337Z" fill="#50382B"/>
<path fill-rule="evenodd" clip-rule="evenodd" d="M61.5669 87.7475C61.682 88.3072 61.6798 88.8105 61.2685 89.192C60.8603 89.5713 60.3436 89.4436 59.8396 89.359C59.8864 89.6248 59.9383 89.8504 59.9636 90.0791C60.1469 91.7782 59.4157 93.0393 57.8398 93.7601C57.2445 94.0318 56.6128 94.1328 55.9677 94.1847C55.6471 94.21 55.3665 94.4549 55.336 94.7184C55.3049 94.9857 55.4726 95.2603 55.8082 95.3405C56.2038 95.4348 56.6165 95.4615 57.0226 95.5082C57.894 95.6077 58.7751 95.653 59.6362 95.8089C60.9382 96.0434 61.6649 97.1799 61.4355 98.4878C61.2314 99.6518 60.5574 100.499 59.6176 101.148C58.0343 102.245 56.2973 102.566 54.4475 102.006C53.3897 101.686 52.6437 100.99 52.3861 99.8648C52.257 99.3014 52.3943 98.7914 52.8182 98.4092C53.3222 97.9563 53.8708 97.5525 54.3985 97.125L54.5693 96.9535L54.3733 96.8162C53.8351 96.5608 53.4046 96.2112 53.2376 95.604C53.1804 95.3984 53.2398 95.2633 53.4142 95.1579C53.7112 94.979 54.0066 94.7971 54.2998 94.6123C54.4379 94.5262 54.5745 94.4371 54.7029 94.3376C54.8781 94.204 54.8625 94.1046 54.6531 94.0274C54.1662 93.8477 53.7334 93.5872 53.3979 93.1863C52.8375 92.5175 52.6786 91.721 52.7246 90.88C52.7966 89.5661 53.51 88.7006 54.6695 88.1439C56.0479 87.4825 57.4308 87.4409 58.836 88.0437C59.3556 88.2664 59.9034 88.3139 60.4609 88.2753C60.8773 88.2456 61.2411 88.0882 61.5669 87.7475ZM56.4874 97.1606C55.4526 97.1517 55.1282 97.2794 54.521 97.8977C53.8411 98.591 53.8448 99.5523 54.5232 100.249C55.0384 100.776 55.6812 101.024 56.3961 101.098C57.2311 101.184 58.0536 101.149 58.8122 100.731C59.6214 100.283 60.0237 99.4521 59.8418 98.6148C59.6911 97.9237 59.1819 97.6075 58.5621 97.4256C57.8569 97.2192 57.128 97.1799 56.4874 97.1606ZM54.4549 90.5482C54.4928 90.8355 54.5084 91.1264 54.5722 91.4078C54.7378 92.1367 55.0547 92.7773 55.7799 93.1017C56.6314 93.484 57.7188 93.3199 58.0915 92.1248C58.3468 91.3061 58.3156 90.4933 58.0076 89.6945C57.8703 89.3382 57.6491 89.0369 57.3321 88.8157C56.5928 88.2998 55.2589 88.2315 54.7155 89.3716C54.5388 89.742 54.4698 90.1362 54.4549 90.5482Z" fill="#4F382B"/>
<path fill-rule="evenodd" clip-rule="evenodd" d="M44.0108 87.5641C44.0382 87.6911 44.0932 87.8351 44.0946 87.9798C44.0969 88.2552 44.0672 88.5306 44.0516 88.806V89.045L44.2847 88.8669C44.923 88.3413 45.6089 87.8937 46.4076 87.6525C47.8492 87.2182 49.2893 88.0073 49.7591 89.4756C49.9373 90.0338 50.0078 90.6076 50.0145 91.191C50.0293 92.4871 50.0382 93.7831 50.0516 95.0792C50.0561 95.5446 50.1095 95.6278 50.5497 95.7621C50.7991 95.8386 51.0567 95.892 51.3143 95.9321C51.456 95.9544 51.5169 96.01 51.5095 96.1489L51.511 96.2765C51.5058 96.8132 51.4687 96.8377 50.9483 96.8362C49.7027 96.834 48.4579 96.8414 47.2123 96.8518C46.8412 96.8548 46.8404 96.8659 46.8033 96.4992L46.7959 96.2884C46.8189 95.9722 46.8263 95.9752 47.1373 95.9291C47.3467 95.898 47.5545 95.8497 47.7586 95.7963C47.9687 95.7421 48.0697 95.5869 48.0979 95.3791C48.112 95.2737 48.1305 95.1683 48.1298 95.0629C48.112 93.6466 48.135 92.2288 48.0578 90.8147C47.9954 89.6708 47.1225 88.9894 45.9741 89.0673C45.4107 89.1066 44.9015 89.2944 44.4368 89.6188C44.1303 89.8334 44.0687 90.1429 44.0701 90.4762C44.0761 91.8005 44.0887 93.1247 44.1028 94.4497C44.1058 94.74 44.1139 95.0302 44.1414 95.3182C44.1704 95.633 44.281 95.7599 44.5898 95.8282C44.8852 95.8935 45.1866 95.9314 45.502 95.9841L45.5288 96.2275C45.5392 96.7954 45.4798 96.8377 44.9282 96.8355C43.6404 96.8303 42.3525 96.8385 41.0653 96.8526C40.8627 96.8555 40.7766 96.7917 40.7818 96.5942L40.7788 96.5096C40.7454 95.9982 40.7602 95.9789 41.2442 95.8957L41.4728 95.8497C41.9969 95.7317 42.1313 95.5921 42.1387 95.0599C42.1632 93.3741 42.1721 91.6891 42.1892 90.0033C42.1914 89.7614 42.1001 89.5736 41.8744 89.4733C41.5582 89.3338 41.239 89.2009 40.9191 89.0695C40.7424 88.9968 40.5405 88.9508 40.5338 88.7065C40.5294 88.5343 40.7135 88.3822 40.9651 88.3309C41.4706 88.2285 41.9806 88.1431 42.4801 88.0177C42.9775 87.8937 43.4659 87.7275 44.0108 87.5641Z" fill="#4F372B"/>
<path fill-rule="evenodd" clip-rule="evenodd" d="M71.8582 91.9675C71.8344 93.5419 71.4254 94.815 70.312 95.7703C68.9016 96.9825 66.7014 97.3944 64.9028 96.4881C64.1353 96.1014 63.5711 95.5083 63.2037 94.7385C62.6403 93.5545 62.4993 92.3097 62.7932 91.0344C63.0842 89.7732 63.848 88.8595 64.9912 88.2679C66.167 87.6599 67.4051 87.4224 68.7108 87.7416C70.3625 88.1446 71.5494 89.4912 71.7854 91.2059C71.8278 91.5065 71.8441 91.8109 71.8582 91.9675ZM69.9453 92.8204L69.8814 92.813C69.8814 92.6645 69.8896 92.5161 69.88 92.3676C69.8258 91.4427 69.6179 90.5616 69.082 89.7873C68.5735 89.054 67.8809 88.6212 66.9798 88.5581C65.971 88.4868 65.1233 89.051 64.8256 90.0813C64.3788 91.6283 64.5302 93.1359 65.3155 94.5529C65.6578 95.1705 66.1647 95.6263 66.8439 95.8661C68.1749 96.3344 69.3551 95.728 69.7018 94.3651C69.8295 93.8618 69.8666 93.3356 69.9453 92.8204Z" fill="#4F382B"/>
<path fill-rule="evenodd" clip-rule="evenodd" d="M39.1628 92.0892C39.1353 93.219 38.8688 94.2634 38.1711 95.1712C37.4236 96.1436 36.3962 96.6632 35.2279 96.8822C33.8464 97.1405 32.5489 96.906 31.4391 95.9788C30.9121 95.5379 30.5521 94.973 30.3146 94.3302C29.9249 93.2761 29.8276 92.1961 30.0674 91.0952C30.3235 89.9172 30.9886 89.0168 32.0196 88.4126C33.2118 87.7155 34.4982 87.4045 35.8722 87.7178C37.6388 88.1216 38.6588 89.2729 39.0359 91.0158C39.1116 91.3677 39.122 91.7314 39.1628 92.0892ZM37.2284 92.8345L37.1771 92.827V92.6147C37.1482 91.5785 36.9455 90.5912 36.3272 89.7302C35.8692 89.091 35.2561 88.6902 34.47 88.5781C33.1888 88.3955 32.3514 89.1556 32.0738 90.1881C31.7116 91.5369 31.8251 92.8693 32.3856 94.1483C32.7352 94.9456 33.2875 95.5669 34.1359 95.8682C35.4587 96.3381 36.6568 95.7161 36.9916 94.3584C37.1148 93.8618 37.1519 93.3437 37.2284 92.8345Z" fill="#4F372B"/>
<path fill-rule="evenodd" clip-rule="evenodd" d="M70.0002 34.4941C70.911 37.1271 71.5657 39.815 71.7818 42.6001C72.049 46.0562 71.9272 49.4886 71.1983 52.8876L71.1048 53.1593C70.8761 53.16 70.6431 53.1311 70.4196 53.166C68.532 53.4629 66.6465 53.7702 64.7603 54.076C62.8103 54.3923 60.8588 54.6959 58.9125 55.0329C58.2229 55.1516 57.3692 55.0099 57.0909 55.963L56.9573 56.0082L57.0515 50.3089L56.9558 36.557L57.8644 36.4011C59.3497 36.1584 60.835 35.9112 62.3226 35.6744C64.0967 35.3931 65.8723 35.1184 67.6479 34.8438C68.4317 34.7235 69.2164 34.6114 70.0002 34.4941Z" fill="#439934"/>
<path fill-rule="evenodd" clip-rule="evenodd" d="M55.0822 72.6239C54.1239 71.7999 53.1322 71.0123 52.2139 70.1453C47.2717 65.4837 43.6559 59.9959 41.8752 53.3797C41.3845 51.5596 41.0579 49.7091 40.9525 47.8281C40.8783 46.5112 40.7721 45.1832 40.8656 43.8731C41.1128 40.3895 41.6168 36.9393 42.6382 33.5833L42.6947 33.5054C42.7941 33.6375 42.9367 33.7548 42.9871 33.904C43.9848 36.8405 44.9743 39.78 45.9593 42.7218C49.054 51.9642 52.1449 61.2088 55.2447 70.4497C55.3056 70.6301 55.4622 70.7778 55.5751 70.9403L55.0822 72.6239Z" fill="#45A538"/>
<path fill-rule="evenodd" clip-rule="evenodd" d="M70.0002 34.4941C69.2156 34.6106 68.431 34.7234 67.6478 34.8437C65.8722 35.1183 64.0967 35.393 62.3226 35.6743C60.8357 35.9104 59.3504 36.1576 57.8643 36.401L56.9557 36.5569L56.9483 35.9646C56.9179 35.4776 56.8674 34.9907 56.8607 34.5037L56.759 25.1849C56.7353 23.2408 56.6996 21.2967 56.6603 19.3534C56.6358 18.1456 56.6098 16.9372 56.5556 15.7309C56.5259 15.0829 56.4213 14.4378 56.3797 13.7898C56.3552 13.4172 56.3879 13.0416 56.396 12.6674C56.8592 13.5649 57.3128 14.469 57.7886 15.3598C58.5405 16.7679 59.7394 17.8057 60.8194 18.9377C65.0847 23.4145 68.1125 28.6165 70.0002 34.4941Z" fill="#46A037"/>
<path fill-rule="evenodd" clip-rule="evenodd" d="M56.958 56.0082L57.0916 55.9629C57.37 55.0098 58.2236 55.1516 58.9132 55.0328C60.8595 54.6958 62.811 54.3922 64.761 54.076C66.6472 53.7709 68.5327 53.4636 70.4203 53.1659C70.6438 53.131 70.8769 53.16 71.1055 53.1593C70.7529 54.4182 70.4753 55.7046 70.0277 56.9287C69.5192 58.3168 68.9046 59.6722 68.2521 61.0009C67.2767 62.9866 66.0616 64.8394 64.6497 66.537C63.5615 67.8449 62.3486 69.0556 61.1334 70.25C60.4609 70.9099 59.6696 71.4481 58.9318 72.0419L58.7402 71.9113L58.0521 71.3233L57.3403 69.7616C56.8496 67.934 56.5928 66.0738 56.5497 64.1824L56.5631 63.8647L56.6603 62.4885C56.6922 62.0186 56.7353 61.5495 56.7553 61.0796C56.8266 59.3901 56.8904 57.6992 56.958 56.0082Z" fill="#409433"/>
<path fill-rule="evenodd" clip-rule="evenodd" d="M56.958 56.0082C56.8912 57.6991 56.8273 59.3908 56.7553 61.0818C56.7353 61.5524 56.693 62.0215 56.6603 62.4907L56.2268 62.6547C55.2633 59.8184 54.299 57.0118 53.3563 54.1984C51.7967 49.5435 50.2565 44.8818 48.6991 40.2254C47.4424 36.4678 46.1746 32.7125 44.9 28.9602C44.8399 28.785 44.6692 28.647 44.5504 28.4918L47.3266 23.387C47.4224 23.5526 47.5478 23.7077 47.6079 23.8859C48.8921 27.6864 50.1741 31.4878 51.4449 35.2928C53.0987 40.2439 54.7415 45.1973 56.3938 50.1492C56.4599 50.3466 56.5683 50.5292 56.6722 50.7512L57.0522 50.3088C57.0203 52.2091 56.9891 54.1079 56.958 56.0082Z" fill="#4FAA41"/>
<path fill-rule="evenodd" clip-rule="evenodd" d="M44.5497 28.4918C44.6692 28.647 44.8399 28.785 44.8993 28.9602C46.1738 32.7125 47.4417 36.4671 48.6984 40.2254C50.2557 44.8818 51.796 49.5435 53.3556 54.1984C54.2983 57.0118 55.2626 59.8177 56.2261 62.6547L56.6596 62.4907L56.5623 63.8669L56.474 64.1839C56.3233 65.69 56.1964 67.1991 56.0123 68.7023C55.9202 69.4557 55.7235 70.195 55.5743 70.9403C55.4622 70.7777 55.3049 70.63 55.244 70.4496C52.1434 61.2087 49.0532 51.9641 45.9586 42.7217C44.9735 39.78 43.9833 36.8405 42.9864 33.9039C42.9359 33.7547 42.7934 33.6375 42.6939 33.5053L44.5497 28.4918Z" fill="#4AA73C"/>
<path fill-rule="evenodd" clip-rule="evenodd" d="M57.0515 50.3088L56.6715 50.7512C56.5675 50.5293 56.4592 50.3467 56.3931 50.1492C54.7407 45.1973 53.098 40.2439 51.4442 35.2928C50.1734 31.4878 48.8914 27.6864 47.6072 23.8859C47.5471 23.7077 47.4217 23.5526 47.3259 23.387L50.759 18.8709C50.8674 19.0149 51.0218 19.1433 51.0775 19.3059C52.0306 22.0969 52.9748 24.8902 53.9146 27.6857C54.792 30.2971 55.656 32.9115 56.5438 35.5185C56.6032 35.6929 56.8103 35.8161 56.9483 35.9646L56.9558 36.5569L57.0515 50.3088Z" fill="#57AE47"/>
<path fill-rule="evenodd" clip-rule="evenodd" d="M56.9483 35.9646C56.8095 35.8169 56.6032 35.6937 56.5438 35.5185C55.6567 32.9115 54.792 30.2971 53.9146 27.6857C52.9748 24.8902 52.0306 22.0969 51.0775 19.3059C51.0218 19.1433 50.8674 19.0149 50.759 18.8709C51.8755 17.7775 52.957 16.6447 54.1187 15.6018C55.1512 14.6754 55.9811 13.6822 56.0197 12.2177L56.1014 11.9259L56.3953 12.6667C56.3879 13.0409 56.3545 13.4165 56.379 13.7891C56.4213 14.4371 56.526 15.0822 56.5549 15.7302C56.6091 16.9365 56.6351 18.1449 56.6596 19.3527C56.6989 21.296 56.7346 23.2401 56.7583 25.1842L56.86 34.503C56.8674 34.9907 56.9186 35.4777 56.9483 35.9646Z" fill="#60B24F"/>
<path fill-rule="evenodd" clip-rule="evenodd" d="M55.5751 70.9396C55.7243 70.1944 55.921 69.455 56.013 68.7016C56.1971 67.1992 56.3241 65.6893 56.4747 64.1832L56.5126 64.1773L56.5497 64.184C56.5928 66.0753 56.8496 67.9355 57.3403 69.7631C57.2401 69.8952 57.0998 70.0118 57.0463 70.1602C56.6343 71.3227 56.2454 72.4948 55.8312 73.6565C55.7748 73.8153 55.6159 73.9393 55.5053 74.0781L55.0815 72.6232L55.5751 70.9396Z" fill="#A9AA88"/>
<path fill-rule="evenodd" clip-rule="evenodd" d="M55.5053 74.0787C55.6159 73.9392 55.7748 73.816 55.8312 73.6571C56.2454 72.4954 56.6344 71.3233 57.0463 70.1609C57.099 70.0124 57.2401 69.8959 57.3403 69.7637L58.0521 71.3255C57.9118 71.5245 57.7174 71.7049 57.6394 71.9268L56.2766 75.9293C56.2201 76.0904 56.0294 76.2032 55.9002 76.339L55.5053 74.0787Z" fill="#B6B598"/>
<path fill-rule="evenodd" clip-rule="evenodd" d="M55.9002 76.3383C56.0286 76.2025 56.2201 76.0897 56.2766 75.9286L57.6394 71.9261C57.7166 71.7041 57.9118 71.5238 58.0521 71.3248L58.741 71.912C58.4084 72.2408 58.2236 72.6209 58.335 73.1012L58.1256 73.7863C58.0306 73.9036 57.8925 74.006 57.8458 74.1404C57.37 75.5032 56.9164 76.8735 56.4369 78.2356C56.376 78.4079 56.2075 78.5437 56.0895 78.6966L55.9002 76.3383Z" fill="#C2C1A7"/>
<path fill-rule="evenodd" clip-rule="evenodd" d="M56.0887 78.6959C56.2075 78.543 56.376 78.4071 56.4361 78.2349C56.9157 76.8728 57.3699 75.5025 57.845 74.1396C57.8918 74.0053 58.0299 73.9036 58.1249 73.7856L57.8361 76.9299C57.7589 77.019 57.6476 77.097 57.6105 77.2001L56.6499 79.9526C56.5824 80.1404 56.4532 80.3082 56.3523 80.4841C56.2624 80.3668 56.1021 80.2532 56.0947 80.1315C56.0665 79.6549 56.0865 79.1747 56.0887 78.6959Z" fill="#CECDB7"/>
<path fill-rule="evenodd" clip-rule="evenodd" d="M56.353 80.4848C56.454 80.3088 56.5831 80.1411 56.6507 79.9533L57.6112 77.2008C57.6483 77.0969 57.7604 77.0197 57.8369 76.9306L57.8443 78.9942L57.1532 80.7661L56.353 80.4848Z" fill="#DBDAC7"/>
<path fill-rule="evenodd" clip-rule="evenodd" d="M57.1532 80.7661L57.8443 78.9942L57.9868 81.0905L57.1532 80.7661Z" fill="#EBE9DC"/>
<path fill-rule="evenodd" clip-rule="evenodd" d="M58.3342 73.1012C58.2236 72.6217 58.4077 72.2416 58.7403 71.912L58.9318 72.0427L58.3342 73.1012Z" fill="#CECDB7"/>
<path fill-rule="evenodd" clip-rule="evenodd" d="M56.5497 64.1846L56.5126 64.1779L56.4747 64.1838L56.5631 63.8669L56.5497 64.1846Z" fill="#4FAA41"/>
</svg>
