<svg width="112" height="116" viewBox="0 0 112 116" fill="none" xmlns="http://www.w3.org/2000/svg">
<path d="M16.6667 0.814819H96.1111C104.395 0.814819 111.111 7.53055 111.111 15.8148V100.63C111.111 108.914 104.395 115.63 96.1111 115.63H16.6667C7.46193 115.63 0 108.168 0 98.963V17.4815C0 8.27675 7.46193 0.814819 16.6667 0.814819Z" fill="white"/>
<path d="M92.7778 61.1938C90.0833 61.879 88.4167 61.2239 86.9213 58.9785L76.287 44.2655L74.75 42.2285L62.331 59.0271C60.912 61.0479 59.4236 61.9276 56.7755 61.2123L72.6782 39.8651L57.8727 20.5827C60.419 20.0873 62.1782 20.3396 63.7407 22.6197L74.7708 37.5155L85.8819 22.7007C87.3056 20.6799 88.8356 19.9114 91.3912 20.6567L85.6505 28.2678L77.8727 38.3952C76.9468 39.5526 77.0741 40.3442 77.9259 41.4623L92.7778 61.1938ZM18.7222 39.5086L20.0231 33.1104C23.5648 20.4484 38.0787 15.1868 48.088 23.0109C53.9375 27.6128 55.3912 34.122 55.1019 41.4137H22.1296C21.6343 54.5387 31.081 62.46 43.125 58.4183C47.3495 56.9993 49.838 53.6915 51.0833 49.5526C51.7153 47.4785 52.7616 47.1544 54.7106 47.747C53.7153 52.9229 51.4699 57.247 46.7245 59.953C39.6343 64.004 29.5139 62.6938 24.1898 57.0641C21.0185 53.7979 19.7083 49.6591 19.1204 45.2331C19.0278 44.5016 18.8426 43.8049 18.7037 43.1035C18.716 41.906 18.7222 40.7084 18.7222 39.5109V39.5086ZM22.1898 38.629H51.9861C51.7917 29.1382 45.8819 22.3975 37.8056 22.3396C28.9398 22.2702 22.5741 28.8512 22.1898 38.629Z" fill="black"/>
<path d="M24.4299 88.4398H15V71.1852H24.4299V72.2828H16.2156V78.8211H23.9696V79.9187H16.2156V87.3422H24.4299V88.4398Z" fill="black"/>
<path d="M31.1688 81.8424L26.6958 75.611H28.0885L31.8888 81.0281L35.689 75.611H37.0699L32.6323 81.8424L37.3531 88.4398H35.9487L31.8888 82.6804L27.8525 88.4398H26.4834L31.1688 81.8424Z" fill="black"/>
<path d="M45.7798 75.3631C47.4321 75.3631 48.7106 75.9178 49.6155 77.0272C50.5282 78.1366 50.9845 79.7732 50.9845 81.9369C50.9845 83.3846 50.7681 84.612 50.3354 85.6191C49.9027 86.6184 49.285 87.3776 48.4825 87.8969C47.6878 88.4162 46.7318 88.6758 45.6146 88.6758C44.8435 88.6758 44.1708 88.5618 43.5964 88.3336C43.0299 88.0975 42.5578 87.7828 42.1802 87.3894C41.8025 86.9881 41.5114 86.5475 41.3068 86.0676H41.2242C41.2478 86.5161 41.2675 86.9842 41.2832 87.472C41.2989 87.9599 41.3068 88.4201 41.3068 88.8529V94.1166H40.103V75.611H41.0944L41.236 78.172H41.3068C41.5192 77.6842 41.8182 77.2239 42.2038 76.7912C42.5893 76.3584 43.0771 76.0122 43.6672 75.7526C44.2573 75.4929 44.9615 75.3631 45.7798 75.3631ZM45.6264 76.4135C44.6586 76.4135 43.8521 76.6259 43.2069 77.0508C42.5696 77.4678 42.0936 78.0815 41.7789 78.8919C41.472 79.6945 41.3147 80.678 41.3068 81.8424V82.0431C41.3068 83.2941 41.4602 84.3366 41.7671 85.1706C42.0818 85.9968 42.55 86.6144 43.1715 87.0236C43.801 87.4327 44.5799 87.6373 45.5083 87.6373C46.421 87.6373 47.1921 87.413 47.8216 86.9645C48.451 86.5161 48.9309 85.867 49.2614 85.0172C49.5919 84.1675 49.7571 83.1367 49.7571 81.9251C49.7571 80.1233 49.4109 78.7542 48.7185 77.8179C48.034 76.8816 47.0033 76.4135 45.6264 76.4135Z" fill="black"/>
<path d="M59.6 75.3867C59.9383 75.3867 60.257 75.4064 60.556 75.4457C60.855 75.4851 61.1343 75.5401 61.3939 75.611L61.2051 76.7085C60.9455 76.6377 60.6819 76.5866 60.4144 76.5551C60.1468 76.5158 59.8597 76.4961 59.5528 76.4961C58.947 76.4961 58.4041 76.6102 57.9241 76.8384C57.452 77.0665 57.0508 77.3931 56.7203 77.8179C56.3899 78.2428 56.1381 78.7542 55.965 79.3522C55.7919 79.9502 55.7053 80.619 55.7053 81.3586V88.4398H54.5015V75.611H55.5283L55.6463 78.0304H55.7171C55.9138 77.5347 56.1892 77.0901 56.5433 76.6967C56.9052 76.2955 57.3419 75.9768 57.8533 75.7408C58.3647 75.5047 58.947 75.3867 59.6 75.3867Z" fill="black"/>
<path d="M68.7702 75.3631C69.8639 75.3631 70.7726 75.6188 71.4965 76.1302C72.2282 76.6417 72.7711 77.3419 73.1252 78.231C73.4871 79.1201 73.6681 80.139 73.6681 81.2878V82.1493H64.4035C64.4035 83.9117 64.8087 85.265 65.6191 86.2092C66.4373 87.1534 67.6058 87.6255 69.1243 87.6255C69.919 87.6255 70.6074 87.5625 71.1896 87.4366C71.7798 87.3029 72.4328 87.0786 73.1488 86.7639V87.8615C72.5193 88.1448 71.8899 88.3493 71.2605 88.4752C70.631 88.609 69.9072 88.6758 69.0889 88.6758C67.7907 88.6758 66.7009 88.4083 65.8197 87.8733C64.9464 87.3304 64.2854 86.5672 63.837 85.5837C63.3963 84.6002 63.176 83.4515 63.176 82.1375C63.176 80.855 63.3885 79.7023 63.8134 78.6795C64.2461 77.6566 64.8755 76.8502 65.7017 76.2601C66.5357 75.6621 67.5585 75.3631 68.7702 75.3631ZM68.7584 76.3899C67.531 76.3899 66.5357 76.799 65.7725 77.6173C65.0172 78.4277 64.5726 79.6001 64.4389 81.1343H72.4289C72.4289 80.198 72.2951 79.3719 72.0276 78.6559C71.7601 77.9399 71.3549 77.3852 70.812 76.9918C70.277 76.5905 69.5924 76.3899 68.7584 76.3899Z" fill="black"/>
<path d="M85.2223 85.0762C85.2223 85.8394 85.0295 86.4925 84.644 87.0354C84.2663 87.5704 83.7116 87.9795 82.9799 88.2628C82.2482 88.5382 81.3473 88.6758 80.2772 88.6758C79.3882 88.6758 78.5935 88.5972 77.8932 88.4398C77.193 88.2824 76.6068 88.0897 76.1347 87.8615V86.6813C76.7248 86.9724 77.3779 87.2085 78.0939 87.3894C78.8099 87.5704 79.5455 87.6609 80.3008 87.6609C81.6227 87.6609 82.5747 87.4366 83.1569 86.9881C83.7392 86.5397 84.0303 85.926 84.0303 85.147C84.0303 84.6356 83.8847 84.2147 83.5936 83.8842C83.3104 83.5459 82.9012 83.2548 82.3662 83.0109C81.8312 82.7669 81.186 82.5191 80.4307 82.2673C79.6439 81.9998 78.9436 81.7362 78.3299 81.4766C77.7241 81.2091 77.248 80.8589 76.9019 80.4262C76.5557 79.9856 76.3826 79.3876 76.3826 78.6323C76.3826 77.6016 76.7956 76.799 77.6218 76.2247C78.4479 75.6503 79.5573 75.3631 80.95 75.3631C81.721 75.3631 82.437 75.4379 83.0979 75.5874C83.7667 75.729 84.3726 75.9139 84.9155 76.142L84.4906 77.157C84.0028 76.9289 83.4402 76.744 82.8029 76.6023C82.1656 76.4607 81.5283 76.3899 80.891 76.3899C79.8445 76.3899 79.0262 76.5748 78.4361 76.9446C77.846 77.3144 77.551 77.8573 77.551 78.5733C77.551 79.124 77.6926 79.5568 77.9758 79.8715C78.2591 80.1784 78.6643 80.438 79.1915 80.6504C79.7186 80.855 80.3441 81.0832 81.068 81.335C81.8154 81.5946 82.5039 81.8661 83.1333 82.1493C83.7707 82.4326 84.2781 82.7984 84.6558 83.2469C85.0335 83.6954 85.2223 84.3051 85.2223 85.0762Z" fill="black"/>
<path d="M96.4815 85.0762C96.4815 85.8394 96.2887 86.4925 95.9032 87.0354C95.5255 87.5704 94.9708 87.9795 94.2391 88.2628C93.5074 88.5382 92.6065 88.6758 91.5364 88.6758C90.6473 88.6758 89.8527 88.5972 89.1524 88.4398C88.4521 88.2824 87.866 88.0897 87.3939 87.8615V86.6813C87.984 86.9724 88.637 87.2085 89.353 87.3894C90.069 87.5704 90.8047 87.6609 91.56 87.6609C92.8819 87.6609 93.8339 87.4366 94.4161 86.9881C94.9984 86.5397 95.2895 85.926 95.2895 85.147C95.2895 84.6356 95.1439 84.2147 94.8528 83.8842C94.5695 83.5459 94.1604 83.2548 93.6254 83.0109C93.0904 82.7669 92.4452 82.5191 91.6898 82.2673C90.903 81.9998 90.2028 81.7362 89.5891 81.4766C88.9832 81.2091 88.5072 80.8589 88.161 80.4262C87.8148 79.9856 87.6417 79.3876 87.6417 78.6323C87.6417 77.6016 88.0548 76.799 88.881 76.2247C89.7071 75.6503 90.8165 75.3631 92.2091 75.3631C92.9802 75.3631 93.6962 75.4379 94.3571 75.5874C95.0259 75.729 95.6317 75.9139 96.1746 76.142L95.7498 77.157C95.2619 76.9289 94.6994 76.744 94.0621 76.6023C93.4247 76.4607 92.7874 76.3899 92.1501 76.3899C91.1037 76.3899 90.2854 76.5748 89.6953 76.9446C89.1052 77.3144 88.8101 77.8573 88.8101 78.5733C88.8101 79.124 88.9518 79.5568 89.235 79.8715C89.5183 80.1784 89.9235 80.438 90.4506 80.6504C90.9778 80.855 91.6033 81.0832 92.3272 81.335C93.0746 81.5946 93.7631 81.8661 94.3925 82.1493C95.0298 82.4326 95.5373 82.7984 95.915 83.2469C96.2927 83.6954 96.4815 84.3051 96.4815 85.0762Z" fill="black"/>
</svg>
