<svg width="112" height="116" viewBox="0 0 112 116" fill="none" xmlns="http://www.w3.org/2000/svg">
<path d="M16.7408 0.814819H96.1852C104.469 0.814819 111.185 7.53055 111.185 15.8148V100.63C111.185 108.914 104.469 115.63 96.1852 115.63H16.7408C7.53602 115.63 0.0740967 108.168 0.0740967 98.963V17.4815C0.0740967 8.27675 7.53602 0.814819 16.7408 0.814819Z" fill="white"/>
<mask id="mask0_4_175" style="mask-type:luminance" maskUnits="userSpaceOnUse" x="7" y="30" width="97" height="60">
<path d="M103.778 30.4445H7.48138V89.5011H103.778V30.4445Z" fill="white"/>
</mask>
<g mask="url(#mask0_4_175)">
<path d="M55.0863 89.3307C54.7603 89.3307 54.4559 89.2441 54.1733 89.0918L51.2822 87.3744C50.8474 87.1355 51.0648 87.0485 51.1955 87.0052C51.7822 86.8092 51.8907 86.7659 52.4996 86.4181C52.5648 86.3744 52.6518 86.3963 52.717 86.44L54.934 87.7659C55.0211 87.8092 55.1296 87.8092 55.1948 87.7659L63.8681 82.7444C63.9551 82.7011 63.9985 82.6141 63.9985 82.5055V72.4844C63.9985 72.3755 63.9551 72.2889 63.8681 72.2455L55.1948 67.2459C55.1081 67.2022 54.9992 67.2022 54.934 67.2459L46.2611 72.2455C46.174 72.2889 46.1303 72.3974 46.1303 72.4844V82.5052C46.1303 82.5922 46.174 82.7007 46.2611 82.7444L48.6303 84.1141C49.9129 84.7659 50.717 84.0052 50.717 83.2444V73.3541C50.717 73.2237 50.8259 73.0929 50.9781 73.0929H52.0866C52.217 73.0929 52.3474 73.2018 52.3474 73.3541V83.2444C52.3474 84.9615 51.4126 85.9615 49.7822 85.9615C49.2826 85.9615 48.8911 85.9615 47.7826 85.4181L45.5 84.1141C44.9348 83.7878 44.5874 83.1792 44.5874 82.527V72.5063C44.5874 71.8541 44.9348 71.2452 45.5 70.9192L54.1733 65.8981C54.7166 65.5937 55.4559 65.5937 55.9992 65.8981L64.6722 70.9192C65.2374 71.2452 65.5855 71.8541 65.5855 72.5063V82.527C65.5855 83.1792 65.2374 83.7878 64.6722 84.1141L55.9992 89.1352C55.7166 89.2659 55.3907 89.3307 55.0863 89.3307ZM57.76 82.4404C53.9559 82.4404 53.1733 80.7011 53.1733 79.2229C53.1733 79.0926 53.2822 78.9622 53.4344 78.9622H54.5644C54.6948 78.9622 54.8037 79.0492 54.8037 79.1796C54.9777 80.3315 55.4774 80.8967 57.7818 80.8967C59.6074 80.8967 60.3903 80.4837 60.3903 79.5055C60.3903 78.9404 60.1726 78.5274 57.3251 78.2448C54.9559 78.0055 53.4777 77.4841 53.4777 75.5929C53.4777 73.8322 54.9559 72.7889 57.434 72.7889C60.2163 72.7889 61.5859 73.7452 61.7596 75.8318C61.7596 75.8974 61.7377 75.9622 61.6944 76.0278C61.6507 76.0711 61.5859 76.1144 61.5203 76.1144H60.39C60.2814 76.1144 60.1726 76.0278 60.1511 75.9189C59.8903 74.7233 59.2163 74.3322 57.434 74.3322C55.434 74.3322 55.1948 75.0278 55.1948 75.5492C55.1948 76.1796 55.4774 76.3755 58.1729 76.7233C60.8466 77.0711 62.1074 77.5711 62.1074 79.4404C62.0855 81.3533 60.5207 82.4404 57.76 82.4404Z" fill="#539E43"/>
<path d="M28.1754 50.1389C28.1754 49.7478 27.9579 49.3778 27.6102 49.1822L18.3936 43.8785C18.2412 43.7915 18.0674 43.7482 17.8936 43.7263H17.8066C17.6328 43.7263 17.4588 43.7915 17.3066 43.8785L8.09006 49.1822C7.74209 49.3778 7.52487 49.7474 7.52487 50.1389L7.54669 64.3985C7.54669 64.5941 7.65539 64.7897 7.82917 64.8767C8.00317 64.9856 8.22039 64.9856 8.37272 64.8767L13.8505 61.7467C14.1983 61.5511 14.4157 61.1815 14.4157 60.79V54.1167C14.4157 53.7256 14.6329 53.3559 14.9809 53.1604L17.3066 51.8126C17.4806 51.7037 17.6762 51.6604 17.8718 51.6604C18.0674 51.6604 18.263 51.7037 18.4154 51.8126L20.7412 53.1604C21.0891 53.3559 21.3063 53.7252 21.3063 54.1167V60.79C21.3063 61.1815 21.5238 61.5511 21.8715 61.7467L27.3493 64.8767C27.5233 64.9856 27.7405 64.9856 27.9145 64.8767C28.0885 64.7897 28.1972 64.5941 28.1972 64.3985L28.1754 50.1389Z" fill="#333333"/>
<path d="M72.4758 30.5098C72.3021 30.4227 72.0847 30.4227 71.9325 30.5098C71.7584 30.6185 71.6499 30.7923 71.6499 30.9879V45.1174C71.6499 45.2474 71.5847 45.3778 71.4543 45.4648C71.324 45.53 71.1932 45.53 71.0632 45.4648L68.7588 44.1389C68.5899 44.043 68.3988 43.9922 68.2047 43.9922C68.0103 43.9922 67.8191 44.043 67.6503 44.1389L58.4336 49.4648C58.0858 49.6604 57.8684 50.03 57.8684 50.4211V61.0504C57.8684 61.4419 58.0858 61.8115 58.4336 62.0071L67.6503 67.3326C67.8191 67.4289 68.0103 67.4793 68.2047 67.4793C68.3988 67.4793 68.5899 67.4289 68.7588 67.3326L77.9754 62.0071C78.3232 61.8115 78.5406 61.4419 78.5406 61.0504V34.553C78.5406 34.1399 78.3232 33.7705 77.9754 33.5747L72.4758 30.5098ZM71.6284 57.5508C71.6284 57.6597 71.5847 57.7467 71.4977 57.79L68.3458 59.616C68.3017 59.6374 68.2536 59.6485 68.2047 59.6485C68.1554 59.6485 68.1073 59.6374 68.0632 59.616L64.9114 57.79C64.8243 57.7467 64.781 57.6378 64.781 57.5508V53.8989C64.781 53.7904 64.8243 53.7034 64.9114 53.66L68.0632 51.8341C68.1073 51.8126 68.1554 51.8011 68.2047 51.8011C68.2536 51.8011 68.3017 51.8126 68.3458 51.8341L71.4977 53.66C71.5847 53.7034 71.6284 53.8122 71.6284 53.8989V57.5508Z" fill="#333333"/>
<path d="M103.148 53.8122C103.496 53.6167 103.691 53.2471 103.691 52.8559V50.2693C103.691 49.8778 103.474 49.5085 103.148 49.3126L93.9966 44.0089C93.8277 43.913 93.6366 43.8622 93.4422 43.8622C93.2481 43.8622 93.057 43.913 92.8881 44.0089L83.6715 49.3345C83.3237 49.53 83.1063 49.8997 83.1063 50.2911V60.9204C83.1063 61.3115 83.3237 61.6811 83.6715 61.8767L92.8229 67.0937C93.1707 67.2893 93.5837 67.2893 93.9096 67.0937L99.4526 64.0074C99.6266 63.9204 99.7352 63.7248 99.7352 63.5289C99.7352 63.3334 99.6266 63.1378 99.4526 63.0508L90.1926 57.7252C90.0189 57.6167 89.91 57.4426 89.91 57.2471V53.9211C89.91 53.7256 90.0189 53.53 90.1926 53.443L93.0837 51.7908C93.1681 51.7378 93.2663 51.7093 93.3663 51.7093C93.4663 51.7093 93.564 51.7378 93.6489 51.7908L96.54 53.443C96.7137 53.5515 96.8226 53.7256 96.8226 53.9211V56.5296C96.8226 56.7252 96.9311 56.9208 97.1052 57.0078C97.2789 57.1167 97.4963 57.1167 97.67 57.0078L103.148 53.8122Z" fill="#333333"/>
<path d="M93.2999 53.3122C93.3321 53.2911 93.3699 53.2796 93.4088 53.2796C93.4473 53.2796 93.4851 53.2911 93.5173 53.3122L95.2781 54.334C95.3433 54.377 95.3866 54.4426 95.3866 54.5296V56.5729C95.3866 56.6596 95.3433 56.7248 95.2781 56.7685L93.5173 57.79C93.4851 57.8111 93.4473 57.8226 93.4088 57.8226C93.3699 57.8226 93.3321 57.8111 93.2999 57.79L91.5392 56.7685C91.474 56.7248 91.4307 56.6596 91.4307 56.5729V54.5296C91.4307 54.4426 91.474 54.377 91.5392 54.334L93.2999 53.3122Z" fill="#539E43"/>
<mask id="mask1_4_175" style="mask-type:alpha" maskUnits="userSpaceOnUse" x="32" y="43" width="22" height="25">
<path d="M43.587 44.0522C43.4181 43.9563 43.227 43.9056 43.0326 43.9056C42.8381 43.9056 42.6474 43.9563 42.4785 44.0522L33.327 49.3341C32.9791 49.5297 32.7835 49.8993 32.7835 50.2904V60.8767C32.7835 61.2678 33.0009 61.6374 33.327 61.833L42.4785 67.1152C42.6474 67.2115 42.8381 67.2619 43.0326 67.2619C43.227 67.2619 43.4181 67.2115 43.587 67.1152L52.7385 61.833C53.0863 61.6374 53.2818 61.2678 53.2818 60.8767V50.2908C53.2818 49.8997 53.0644 49.53 52.7385 49.3345L43.587 44.0522Z" fill="white"/>
</mask>
<g mask="url(#mask1_4_175)">
<path d="M43.587 44.0522C43.4181 43.9563 43.227 43.9056 43.0326 43.9056C42.8381 43.9056 42.6474 43.9563 42.4785 44.0522L33.327 49.3341C32.9791 49.5296 32.7835 49.8993 32.7835 50.2904V60.8767C32.7835 61.2678 33.0009 61.6374 33.327 61.833L42.4785 67.1152C42.6474 67.2115 42.8381 67.2619 43.0326 67.2619C43.227 67.2619 43.4181 67.2115 43.587 67.1152L52.7385 61.833C53.0863 61.6374 53.2818 61.2678 53.2818 60.8767V50.2907C53.2818 49.8996 53.0644 49.53 52.7385 49.3345L43.587 44.0522Z" fill="url(#paint0_linear_4_175)"/>
<path d="M52.7596 49.3344L43.5652 44.0522C43.4748 44.0067 43.38 43.9704 43.2822 43.9437L32.9788 61.5944C33.0641 61.6985 33.1672 61.787 33.2833 61.8552L42.4781 67.1374C42.7389 67.2896 43.0433 67.333 43.3259 67.2459L52.9989 49.5519C52.9337 49.4652 52.8466 49.3996 52.7596 49.3344Z" fill="url(#paint1_linear_4_175)"/>
<path fill-rule="evenodd" clip-rule="evenodd" d="M52.7818 61.8333C53.0429 61.6811 53.2385 61.4204 53.3255 61.1378L43.2388 43.9219C42.9781 43.8785 42.6955 43.9 42.4566 44.0522L33.3269 49.3126L43.1737 67.2678C43.317 67.2441 43.4559 67.2004 43.5866 67.1374L52.7818 61.8333Z" fill="url(#paint2_linear_4_175)"/>
<path fill-rule="evenodd" clip-rule="evenodd" d="M52.7818 61.8337L43.6085 67.1159C43.4792 67.1818 43.3396 67.2259 43.1955 67.2459L43.3696 67.5722L53.5426 61.6815V61.5511L53.2818 61.1163C53.2381 61.4204 53.0426 61.6815 52.7818 61.8337Z" fill="url(#paint3_linear_4_175)"/>
<path fill-rule="evenodd" clip-rule="evenodd" d="M52.7818 61.8337L43.6085 67.1159C43.4792 67.1818 43.3396 67.2259 43.1955 67.2459L43.3696 67.5722L53.5426 61.6815V61.5511L53.2818 61.1163C53.2381 61.4204 53.0426 61.6815 52.7818 61.8337Z" fill="url(#paint4_linear_4_175)"/>
</g>
</g>
<defs>
<linearGradient id="paint0_linear_4_175" x1="46.7611" y1="47.99" x2="36.7304" y2="63.7511" gradientUnits="userSpaceOnUse">
<stop stop-color="#41873F"/>
<stop offset="0.3288" stop-color="#418B3D"/>
<stop offset="0.6352" stop-color="#419637"/>
<stop offset="0.9319" stop-color="#3FA92D"/>
<stop offset="1" stop-color="#3FAE2A"/>
</linearGradient>
<linearGradient id="paint1_linear_4_175" x1="41.6429" y1="56.8237" x2="66.7644" y2="43.1752" gradientUnits="userSpaceOnUse">
<stop offset="0.1376" stop-color="#41873F"/>
<stop offset="0.4032" stop-color="#54A044"/>
<stop offset="0.7136" stop-color="#66B848"/>
<stop offset="0.9081" stop-color="#6CC04A"/>
</linearGradient>
<linearGradient id="paint2_linear_4_175" x1="32.4491" y1="55.5841" x2="53.6251" y2="55.5841" gradientUnits="userSpaceOnUse">
<stop offset="0.09192" stop-color="#6CC04A"/>
<stop offset="0.2864" stop-color="#66B848"/>
<stop offset="0.5968" stop-color="#54A044"/>
<stop offset="0.8624" stop-color="#41873F"/>
</linearGradient>
<linearGradient id="paint3_linear_4_175" x1="32.4491" y1="64.3618" x2="53.6252" y2="64.3618" gradientUnits="userSpaceOnUse">
<stop offset="0.09192" stop-color="#6CC04A"/>
<stop offset="0.2864" stop-color="#66B848"/>
<stop offset="0.5968" stop-color="#54A044"/>
<stop offset="0.8624" stop-color="#41873F"/>
</linearGradient>
<linearGradient id="paint4_linear_4_175" x1="56.71" y1="47.4896" x2="51.3455" y2="75.6004" gradientUnits="userSpaceOnUse">
<stop stop-color="#41873F"/>
<stop offset="0.3288" stop-color="#418B3D"/>
<stop offset="0.6352" stop-color="#419637"/>
<stop offset="0.9319" stop-color="#3FA92D"/>
<stop offset="1" stop-color="#3FAE2A"/>
</linearGradient>
</defs>
</svg>
